<?xml version="1.0" encoding="UTF-8" standalone="no"?>
<!-- Created with Inkscape (http://www.inkscape.org/) -->

<svg
   xmlns:osb="http://www.openswatchbook.org/uri/2009/osb"
   xmlns:dc="http://purl.org/dc/elements/1.1/"
   xmlns:cc="http://creativecommons.org/ns#"
   xmlns:rdf="http://www.w3.org/1999/02/22-rdf-syntax-ns#"
   xmlns:svg="http://www.w3.org/2000/svg"
   xmlns="http://www.w3.org/2000/svg"
   xmlns:sodipodi="http://sodipodi.sourceforge.net/DTD/sodipodi-0.dtd"
   xmlns:inkscape="http://www.inkscape.org/namespaces/inkscape"
   width="744.09448819"
   height="1052.3622047"
   id="svg4401"
   version="1.1"
   inkscape:version="0.48.4 r9939"
   sodipodi:docname="New document 25">
  <defs
     id="defs4403">
    <linearGradient
       osb:paint="solid"
       id="linearGradient5585">
      <stop
         id="stop5587"
         offset="0"
         style="stop-color:#06ff12;stop-opacity:1;" />
    </linearGradient>
  </defs>
  <sodipodi:namedview
     id="base"
     pagecolor="#ffffff"
     bordercolor="#666666"
     borderopacity="1.0"
     inkscape:pageopacity="0.0"
     inkscape:pageshadow="2"
     inkscape:zoom="1.4"
     inkscape:cx="218.07149"
     inkscape:cy="541.42551"
     inkscape:document-units="px"
     inkscape:current-layer="layer1"
     showgrid="false"
     inkscape:window-width="1280"
     inkscape:window-height="1004"
     inkscape:window-x="-3"
     inkscape:window-y="-3"
     inkscape:window-maximized="1" />
  <metadata
     id="metadata4406">
    <rdf:RDF>
      <cc:Work
         rdf:about="">
        <dc:format>image/svg+xml</dc:format>
        <dc:type
           rdf:resource="http://purl.org/dc/dcmitype/StillImage" />
        <dc:title></dc:title>
      </cc:Work>
    </rdf:RDF>
  </metadata>
  <g
     inkscape:label="Layer 1"
     inkscape:groupmode="layer"
     id="layer1">
    <g
       id="g4505"
       transform="translate(12.08901,347.32252)">
      <path
         transform="matrix(1.0598668,0,0,1.0598668,322.49759,-14.705652)"
         d="m -112.85715,110.28571 c 0,52.46705 -42.53295,95 -95,95 -52.46705,0 -95,-42.53295 -95,-95 0,-52.467048 42.53295,-94.999997 95,-94.999997 52.46705,0 95,42.532949 95,94.999997 z"
         sodipodi:ry="95"
         sodipodi:rx="95"
         sodipodi:cy="110.28571"
         sodipodi:cx="-207.85715"
         id="path2990"
         style="fill:#fff6d5;fill-opacity:1;stroke:#ffdd55;stroke-width:2.83054446999999998;stroke-linejoin:miter;stroke-miterlimit:3.59999989999999981;stroke-opacity:1;stroke-dasharray:none;stroke-dashoffset:1.19999999999999996;marker-start:none"
         sodipodi:type="arc" />
      <path
         transform="matrix(0.94078064,0,0,0.94078064,209.71449,-206.52793)"
         d="m -21.428574,328.14285 a 92.85714,92.85714 0 1 1 -185.714276,0 92.85714,92.85714 0 1 1 185.714276,0 z"
         sodipodi:ry="92.85714"
         sodipodi:rx="92.85714"
         sodipodi:cy="328.14285"
         sodipodi:cx="-114.28571"
         id="path2994"
         style="opacity:0.98000004;fill:#ffdd55;fill-opacity:1;stroke:#ff9955;stroke-width:5;stroke-linejoin:bevel;stroke-miterlimit:3.9000001;stroke-opacity:0;stroke-dasharray:none"
         sodipodi:type="arc" />
    </g>
    <path
       style="opacity:0.98000003999999996;fill:#fff6d5;fill-opacity:1;stroke:#ffffff;stroke-width:3.24461842000000011;stroke-linejoin:bevel;stroke-miterlimit:3.90000010000000019;stroke-opacity:1;stroke-dasharray:none"
       d="m 71.150221,477.91127 c 0,-36.64612 0.05667,-34.64512 -0.997459,-35.19712 -0.326184,-0.1708 -2.387706,-0.24911 -7.447786,-0.28287 l -6.99677,-0.0467 29.222862,-27.60387 c 16.072572,-15.18214 29.287982,-27.59595 29.367542,-27.58626 0.0797,0.009 13.28918,12.43143 29.35464,27.60387 l 29.20997,27.58626 -7.03736,0.0507 c -6.71964,0.0485 -7.06222,0.0683 -7.58813,0.44286 -0.3179,0.22638 -0.63484,0.6949 -0.74961,1.10813 -0.13284,0.47826 -0.1992,11.8555 -0.19991,34.27261 l -9e-4,33.55671 -12.45367,0 -12.45367,0 -0.0515,-21.0673 -0.0515,-21.06725 -0.61541,-0.54986 c -0.38344,-0.34258 -0.92945,-0.59518 -1.4485,-0.67011 -0.45818,-0.0662 -7.95964,-0.094 -16.6699,-0.0619 -17.401019,0.0641 -16.400785,-0.008 -16.995667,1.24449 -0.251862,0.53075 -0.289665,3.32122 -0.289665,21.39117 l 0,20.78079 -12.553572,0 -12.55359,0 0,-33.90427 z"
       id="path5447"
       inkscape:connector-curvature="0" />
  </g>
</svg>
