<?xml version="1.0" encoding="iso-8859-1"?>
<!-- Generator: Adobe Illustrator 16.0.0, SVG Export Plug-In . SVG Version: 6.00 Build 0)  -->
<!DOCTYPE svg PUBLIC "-//W3C//DTD SVG 1.1//EN" "http://www.w3.org/Graphics/SVG/1.1/DTD/svg11.dtd">
<svg version="1.1" id="Capa_1" xmlns="http://www.w3.org/2000/svg" xmlns:xlink="http://www.w3.org/1999/xlink" x="0px" y="0px"
	 width="503.607px" height="503.607px" viewBox="0 0 503.607 503.607" style="enable-background:new 0 0 503.607 503.607;"
	 xml:space="preserve">
<g>
	<g>
		<path d="M84.102,427.979c2.854,1.887,5.274,3.814,7.366,5.488c5.178,4.146,6.922,5.543,12.323,5.543
			c5.402,0,7.146-1.396,12.324-5.543c7.067-5.658,17.746-14.207,37.012-14.207c19.266,0,29.944,8.549,37.011,14.207
			c5.178,4.146,6.921,5.543,12.322,5.543c5.401,0,7.146-1.396,12.323-5.543c7.066-5.658,17.745-14.207,37.011-14.207
			c19.265,0,29.945,8.549,37.011,14.207c5.179,4.145,6.922,5.543,12.324,5.543s7.146-1.396,12.324-5.543
			c7.066-5.658,17.746-14.207,37.012-14.207s29.945,8.549,37.012,14.207c5.182,4.145,6.924,5.543,12.328,5.543
			s7.15-1.398,12.328-5.543c2.094-1.676,4.514-3.605,7.369-5.49V383.25l19.617-132.733l-35.35-29.9V45.253
			c0-22.798-30.221-31.79-52.953-36.571C324.192,3.084,289.027,0,251.803,0s-72.389,3.084-99.017,8.682
			c-22.732,4.781-52.953,13.773-52.953,36.571v175.363l-35.349,29.9l19.617,132.733L84.102,427.979L84.102,427.979z M133.511,66.786
			c3.761-2.103,13.54-6.324,35.941-10.155c23.066-3.943,52.313-6.114,82.351-6.114c30.038,0,59.284,2.17,82.35,6.114
			c22.402,3.832,32.18,8.052,35.941,10.155v125.342L251.803,92.068L133.511,192.129V66.786z"/>
		<path d="M412.136,458.564c-5.18,4.146-6.924,5.543-12.328,5.543s-7.148-1.395-12.328-5.543
			c-7.066-5.656-17.748-14.207-37.014-14.207s-29.945,8.551-37.01,14.209c-5.18,4.146-6.922,5.541-12.324,5.541
			s-7.146-1.395-12.326-5.541c-7.065-5.656-17.746-14.209-37.01-14.209c-19.265,0-29.944,8.551-37.011,14.209
			c-5.178,4.146-6.922,5.541-12.323,5.541c-5.401,0-7.145-1.395-12.322-5.541c-7.066-5.656-17.745-14.209-37.011-14.209
			c-19.266,0-29.945,8.551-37.012,14.209c-5.178,4.146-6.922,5.541-12.324,5.541c-5.401,0-7.146-1.395-12.323-5.541
			c-7.066-5.656-17.745-14.209-37.011-14.209v39.5c5.401,0,7.146,1.396,12.323,5.543c7.066,5.658,17.745,14.207,37.011,14.207
			c19.266,0,29.945-8.549,37.012-14.207c5.178-4.145,6.922-5.543,12.324-5.543c5.401,0,7.145,1.396,12.322,5.543
			c7.066,5.658,17.745,14.207,37.011,14.207c19.266,0,29.944-8.549,37.011-14.207c5.178-4.146,6.922-5.543,12.323-5.543
			c5.402,0,7.146,1.396,12.324,5.543c7.067,5.658,17.746,14.207,37.013,14.207c19.266,0,29.945-8.549,37.01-14.207
			c5.178-4.146,6.922-5.543,12.324-5.543c5.404,0,7.148,1.398,12.328,5.543c7.066,5.658,17.748,14.207,37.014,14.207
			c19.268,0,29.947-8.549,37.014-14.207c5.18-4.145,6.926-5.543,12.328-5.543v-39.5
			C429.882,444.357,419.202,452.908,412.136,458.564z"/>
	</g>
</g>
<g>
</g>
<g>
</g>
<g>
</g>
<g>
</g>
<g>
</g>
<g>
</g>
<g>
</g>
<g>
</g>
<g>
</g>
<g>
</g>
<g>
</g>
<g>
</g>
<g>
</g>
<g>
</g>
<g>
</g>
</svg>
