<?xml version="1.0" encoding="UTF-8" standalone="no"?>
<!-- Generator: Adobe Illustrator 16.0.0, SVG Export Plug-In . SVG Version: 6.00 Build 0)  -->

<svg
   xmlns:dc="http://purl.org/dc/elements/1.1/"
   xmlns:cc="http://creativecommons.org/ns#"
   xmlns:rdf="http://www.w3.org/1999/02/22-rdf-syntax-ns#"
   xmlns:svg="http://www.w3.org/2000/svg"
   xmlns="http://www.w3.org/2000/svg"
   xmlns:sodipodi="http://sodipodi.sourceforge.net/DTD/sodipodi-0.dtd"
   xmlns:inkscape="http://www.inkscape.org/namespaces/inkscape"
   version="1.1"
   id="Layer_1"
   x="0px"
   y="0px"
   width="146.09314"
   height="195.49152"
   viewBox="0 0 146.09314 195.49152"
   enable-background="new 0 0 512 512"
   xml:space="preserve"
   inkscape:version="0.48.4 r9939"
   sodipodi:docname="human.svg"><metadata
     id="metadata3640"><rdf:RDF><cc:Work
         rdf:about=""><dc:format>image/svg+xml</dc:format><dc:type
           rdf:resource="http://purl.org/dc/dcmitype/StillImage" /></cc:Work></rdf:RDF></metadata><defs
     id="defs3638" /><sodipodi:namedview
     pagecolor="#ffffff"
     bordercolor="#666666"
     borderopacity="1"
     objecttolerance="10"
     gridtolerance="10"
     guidetolerance="10"
     inkscape:pageopacity="0"
     inkscape:pageshadow="2"
     inkscape:window-width="707"
     inkscape:window-height="480"
     id="namedview3636"
     showgrid="false"
     fit-margin-top="10"
     fit-margin-left="10"
     fit-margin-right="10"
     fit-margin-bottom="10"
     inkscape:zoom="0.921875"
     inkscape:cx="216.64082"
     inkscape:cy="132.97854"
     inkscape:window-x="0"
     inkscape:window-y="0"
     inkscape:window-maximized="0"
     inkscape:current-layer="g3624"
     borderlayer="false"
     showborder="true"
     inkscape:showpageshadow="true" /><g
     style="fill:#000000;display:inline"
     id="g3624"
     transform="matrix(0.42442886,0,0,0.42442886,-35.611249,7.9974749)"><path
       d="m 404.554,265.246 c 0,-40.689 -22.257,-76.12 -55.217,-94.978 0.097,1.567 0.266,3.115 0.266,4.708 0,28.772 -42.253,93.745 -69.99,133.295 l -11.369,-55.779 12.063,-12.063 c 1.44,-1.44 1.441,-3.776 10e-4,-5.217 l -4.678,-4.682 c -2.884,-2.887 -6.797,-4.509 -10.877,-4.509 l -17.504,0 c -4.081,0 -7.994,1.622 -10.878,4.509 l -4.678,4.683 c -1.439,1.441 -1.438,3.776 0.002,5.217 l 12.062,12.063 -11.374,55.779 c -27.732,-39.558 -69.985,-104.523 -69.985,-133.295 0,-1.592 0.167,-3.141 0.284,-4.708 -32.959,18.851 -55.217,54.28 -55.217,94.978 12.18447,203.00501 288.94532,204.85469 297.089,-0.001 z"
       id="path3628"
       style="fill:#000000"
       inkscape:connector-curvature="0"
       sodipodi:nodetypes="ccsccsccsscccccsccc" /><path
       style="fill:#000000"
       d="M 71.59375 10 C 50.026562 10 32.53125 27.495312 32.53125 49.0625 C 32.53125 70.629688 50.026562 88.09375 71.59375 88.09375 C 93.160938 88.09375 110.65625 70.629688 110.65625 49.0625 C 110.65625 27.495312 93.160938 10 71.59375 10 z M 71.59375 18.28125 C 88.58264 18.28125 102.34375 32.07361 102.34375 49.0625 C 102.34375 66.05139 88.58264 79.8125 71.59375 79.8125 C 54.60486 79.8125 40.84375 66.05139 40.84375 49.0625 C 40.84375 32.07361 54.60486 18.28125 71.59375 18.28125 z "
       transform="matrix(2.3561075,0,0,2.3561075,83.903926,-18.84291)"
       id="path3848" /></g></svg>