<?xml version="1.0" encoding="UTF-8" standalone="no"?>
<!-- Created with Inkscape (http://www.inkscape.org/) -->

<svg
   xmlns:dc="http://purl.org/dc/elements/1.1/"
   xmlns:cc="http://creativecommons.org/ns#"
   xmlns:rdf="http://www.w3.org/1999/02/22-rdf-syntax-ns#"
   xmlns:svg="http://www.w3.org/2000/svg"
   xmlns="http://www.w3.org/2000/svg"
   xmlns:sodipodi="http://sodipodi.sourceforge.net/DTD/sodipodi-0.dtd"
   xmlns:inkscape="http://www.inkscape.org/namespaces/inkscape"
   width="204.37469"
   height="204.37469"
   id="svg6675"
   version="1.1"
   inkscape:version="0.48.4 r9939"
   inkscape:export-filename="/home/chnn/d3/money.png"
   inkscape:export-xdpi="90"
   inkscape:export-ydpi="90"
   sodipodi:docname="New document 14">
  <defs
     id="defs6677" />
  <sodipodi:namedview
     id="base"
     pagecolor="#ffffff"
     bordercolor="#666666"
     borderopacity="1.0"
     inkscape:pageopacity="0.0"
     inkscape:pageshadow="2"
     inkscape:zoom="0.98994949"
     inkscape:cx="165.19226"
     inkscape:cy="220.55274"
     inkscape:document-units="px"
     inkscape:current-layer="layer1"
     showgrid="false"
     fit-margin-top="0"
     fit-margin-left="0"
     fit-margin-right="0"
     fit-margin-bottom="0"
     inkscape:window-width="1280"
     inkscape:window-height="1004"
     inkscape:window-x="-3"
     inkscape:window-y="-3"
     inkscape:window-maximized="1" />
  <metadata
     id="metadata6680">
    <rdf:RDF>
      <cc:Work
         rdf:about="">
        <dc:format>image/svg+xml</dc:format>
        <dc:type
           rdf:resource="http://purl.org/dc/dcmitype/StillImage" />
        <dc:title></dc:title>
      </cc:Work>
    </rdf:RDF>
  </metadata>
  <g
     inkscape:label="Layer 1"
     inkscape:groupmode="layer"
     id="layer1"
     transform="translate(-192.09836,-475.88912)">
    <path
       sodipodi:type="arc"
       style="fill:#e5ffd5;fill-opacity:1;stroke:#99ff55;stroke-width:2.83054447;stroke-linejoin:miter;stroke-miterlimit:3.5999999;stroke-opacity:1;stroke-dasharray:none;stroke-dashoffset:1.2;marker-start:none"
       id="path2990"
       sodipodi:cx="-207.85715"
       sodipodi:cy="110.28571"
       sodipodi:rx="95"
       sodipodi:ry="95"
       d="m -112.85715,110.28571 c 0,52.46705 -42.53295,95 -95,95 -52.46705,0 -95,-42.53295 -95,-95 0,-52.467048 42.53295,-94.999997 95,-94.999997 52.46705,0 95,42.532949 95,94.999997 z"
       transform="matrix(1.0598668,0,0,1.0598668,514.5866,461.1883)" />
    <path
       sodipodi:type="arc"
       style="opacity:0.98000004;fill:#99ff55;fill-opacity:1;stroke:#ff9955;stroke-width:5;stroke-linejoin:bevel;stroke-miterlimit:3.9000001;stroke-opacity:0;stroke-dasharray:none"
       id="path2994"
       sodipodi:cx="-114.28571"
       sodipodi:cy="328.14285"
       sodipodi:rx="92.85714"
       sodipodi:ry="92.85714"
       d="m -21.428574,328.14285 c 0,51.28358 -41.573557,92.85714 -92.857136,92.85714 -51.28359,0 -92.85714,-41.57356 -92.85714,-92.85714 0,-51.28358 41.57355,-92.85714 92.85714,-92.85714 51.283579,0 92.857136,41.57356 92.857136,92.85714 z"
       transform="matrix(0.94078064,0,0,0.94078064,401.8035,269.36602)" />
    <g
       id="g7447"
       transform="matrix(0.37317474,-0.00370301,0.00795529,0.2952799,201.53284,507.40046)"
       style="fill:#ccffaa;stroke:#ffffff;stroke-width:9.13267708;stroke-miterlimit:4;stroke-opacity:1;stroke-dasharray:none">
      <g
         id="g7407"
         style="fill:#ccffaa;stroke:#ffffff;stroke-width:9.13267708;stroke-miterlimit:4;stroke-opacity:1;stroke-dasharray:none">
        <path
           id="path7409"
           d="m 309.43,219.944 c -19,-10.5 -39.2,-18.5 -59.2,-26.8 -11.6,-4.8 -22.7,-10.4 -32.5,-18.2 -19.3,-15.4 -15.6,-40.4 7,-50.3 6.4,-2.8 13.1,-3.7 19.9,-4.1 26.2,-1.4 51.1,3.4 74.8,14.8 11.8,5.7 15.7,3.9 19.7,-8.4 4.2,-13 7.7,-26.2 11.6,-39.3 2.6,-8.8 -0.6,-14.6 -8.9,-18.3 -15.2,-6.7 -30.8,-11.5 -47.2,-14.1 -21.4,-3.3 -21.4,-3.4 -21.5,-24.9 -0.1,-30.3 -0.1,-30.3 -30.5,-30.3 -4.4,0 -8.8,-0.1 -13.2,0 -14.2,0.4 -16.6,2.9 -17,17.2 -0.2,6.4 0,12.8 -0.1,19.3 -0.1,19 -0.2,18.7 -18.4,25.3 -44,16 -71.2,46 -74.1,94 -2.6,42.5 19.6,71.2 54.5,92.1 21.5,12.9 45.3,20.5 68.1,30.6 8.9,3.9 17.4,8.4 24.8,14.6 21.9,18.1 17.9,48.2 -8.1,59.6 -13.9,6.1 -28.6,7.6 -43.7,5.7 -23.3,-2.9 -45.6,-9 -66.6,-19.9 -12.3,-6.4 -15.9,-4.7 -20.1,8.6 -3.6,11.5 -6.8,23.1 -10,34.7 -4.3,15.6 -2.7,19.3 12.2,26.6 19,9.2 39.3,13.9 60,17.2 16.2,2.6 16.7,3.3 16.9,20.1 0.1,7.6 0.1,15.3 0.2,22.9 0.1,9.6 4.7,15.2 14.6,15.4 11.2,0.2 22.5,0.2 33.7,-0.1 9.2,-0.2 13.9,-5.2 13.9,-14.5 0,-10.4 0.5,-20.9 0.1,-31.3 -0.5,-10.6 4.1,-16 14.3,-18.8 23.5,-6.4 43.5,-19 58.9,-37.8 42.8,-52 26.5,-128.1 -34.1,-161.6 z"
           inkscape:connector-curvature="0"
           style="fill:#ccffaa;stroke:#ffffff;stroke-width:9.13267708;stroke-miterlimit:4;stroke-opacity:1;stroke-dasharray:none" />
      </g>
      <g
         id="g7411"
         style="fill:#ccffaa;stroke:#ffffff;stroke-width:9.13267708;stroke-miterlimit:4;stroke-opacity:1;stroke-dasharray:none" />
      <g
         id="g7413"
         style="fill:#ccffaa;stroke:#ffffff;stroke-width:9.13267708;stroke-miterlimit:4;stroke-opacity:1;stroke-dasharray:none" />
      <g
         id="g7415"
         style="fill:#ccffaa;stroke:#ffffff;stroke-width:9.13267708;stroke-miterlimit:4;stroke-opacity:1;stroke-dasharray:none" />
      <g
         id="g7417"
         style="fill:#ccffaa;stroke:#ffffff;stroke-width:9.13267708;stroke-miterlimit:4;stroke-opacity:1;stroke-dasharray:none" />
      <g
         id="g7419"
         style="fill:#ccffaa;stroke:#ffffff;stroke-width:9.13267708;stroke-miterlimit:4;stroke-opacity:1;stroke-dasharray:none" />
      <g
         id="g7421"
         style="fill:#ccffaa;stroke:#ffffff;stroke-width:9.13267708;stroke-miterlimit:4;stroke-opacity:1;stroke-dasharray:none" />
      <g
         id="g7423"
         style="fill:#ccffaa;stroke:#ffffff;stroke-width:9.13267708;stroke-miterlimit:4;stroke-opacity:1;stroke-dasharray:none" />
      <g
         id="g7425"
         style="fill:#ccffaa;stroke:#ffffff;stroke-width:9.13267708;stroke-miterlimit:4;stroke-opacity:1;stroke-dasharray:none" />
      <g
         id="g7427"
         style="fill:#ccffaa;stroke:#ffffff;stroke-width:9.13267708;stroke-miterlimit:4;stroke-opacity:1;stroke-dasharray:none" />
      <g
         id="g7429"
         style="fill:#ccffaa;stroke:#ffffff;stroke-width:9.13267708;stroke-miterlimit:4;stroke-opacity:1;stroke-dasharray:none" />
      <g
         id="g7431"
         style="fill:#ccffaa;stroke:#ffffff;stroke-width:9.13267708;stroke-miterlimit:4;stroke-opacity:1;stroke-dasharray:none" />
      <g
         id="g7433"
         style="fill:#ccffaa;stroke:#ffffff;stroke-width:9.13267708;stroke-miterlimit:4;stroke-opacity:1;stroke-dasharray:none" />
      <g
         id="g7435"
         style="fill:#ccffaa;stroke:#ffffff;stroke-width:9.13267708;stroke-miterlimit:4;stroke-opacity:1;stroke-dasharray:none" />
      <g
         id="g7437"
         style="fill:#ccffaa;stroke:#ffffff;stroke-width:9.13267708;stroke-miterlimit:4;stroke-opacity:1;stroke-dasharray:none" />
      <g
         id="g7439"
         style="fill:#ccffaa;stroke:#ffffff;stroke-width:9.13267708;stroke-miterlimit:4;stroke-opacity:1;stroke-dasharray:none" />
    </g>
  </g>
</svg>
