<?xml version="1.0" encoding="iso-8859-1"?>
<!-- Generator: Adobe Illustrator 16.0.0, SVG Export Plug-In . SVG Version: 6.00 Build 0)  -->
<!DOCTYPE svg PUBLIC "-//W3C//DTD SVG 1.1//EN" "http://www.w3.org/Graphics/SVG/1.1/DTD/svg11.dtd">
<svg version="1.1" id="Capa_1" xmlns="http://www.w3.org/2000/svg" xmlns:xlink="http://www.w3.org/1999/xlink" x="0px" y="0px"
	 width="100px" height="100px" viewBox="0 0 100 100" style="enable-background:new 0 0 100 100;" xml:space="preserve">
<g>
	<path d="M0,5.104v89.791h100V5.104H0z M72.277,64.359c-1.545,0-2.274-0.472-2.729-1.255c-0.009-0.02-0.229-0.452-0.416-1.036
		c-0.172-0.532-0.097-2.021,1.543-2.021c1.312,0,2.352,0,2.352,0c0.416,0,0.748-0.323,0.748-0.719c0-0.398-0.332-0.72-0.748-0.72
		c0,0-1.367,0-2.444,0c-3.188,0-3.481-1.345-3.958-2.796c-0.363-1.104-0.585-2.954,1.943-2.954c1.172,0,2.951,0,2.951,0
		c0.416,0,0.75-0.323,0.75-0.719c0-0.397-0.332-0.72-0.75-0.72c0,0-1.029,0-3.56,0c-2.532,0-3.056-2.026-3.241-3.1
		c-0.146-0.862,0.149-2.65,2.397-2.65c2.249,0,2.903,0,2.903,0c0.416,0,0.75-0.323,0.75-0.719s-0.334-0.719-0.75-0.719
		c0,0-0.75,0-2.998,0c-2.623,0-2.933-1.396-2.961-2.105c-0.021-0.483-0.035-0.412-0.035-0.904c0-0.449,0.141-1.751,1.779-2.201
		c1.323-0.332,1.219-0.539,16.207-0.539c-1.244-3.552-1.388-4.141-1.388-7.55c0-3.775,2.801-6.825,4.385-6.825
		c0.938,0,1.49,0.749,1.499,1.438c0.061,4.821,2.094,10.67,8.692,13.444v22.998c-0.638,0.158-2.123,0.502-6.423,1.453
		c-0.105,0.021-4.188,0.918-8.305,0.918L72.277,64.359L72.277,64.359z M78.738,10.104H95.2v25.67
		c-4.755-2.582-5.661-7.427-5.695-10.261c-0.028-2.36-2.049-4.279-4.496-4.279c-2.333,0-4.864,2.063-6.274,4.981V25.09l0.004-0.008
		V10.104z M21.261,10.104v9.441v5.595v1.064c-1.411-2.913-3.939-4.971-6.27-4.971c-2.447,0-4.466,1.919-4.497,4.279
		c-0.033,2.835-0.939,7.68-5.695,10.262v-25.67H21.261z M29.979,45.671c0,0,0.656,0,2.904,0s2.544,1.789,2.397,2.65
		c-0.185,1.072-0.708,3.1-3.241,3.1c-2.529,0-3.56,0-3.56,0c-0.416,0-0.75,0.32-0.75,0.72c0,0.396,0.333,0.719,0.75,0.719
		c0,0,1.78,0,2.951,0c2.529,0,2.307,1.851,1.944,2.954c-0.477,1.452-0.77,2.796-3.958,2.796c-1.077,0-2.444,0-2.444,0
		c-0.416,0-0.749,0.32-0.749,0.72c0,0.396,0.333,0.719,0.749,0.719c0,0,1.039,0,2.351,0c1.64,0,1.715,1.488,1.543,2.021
		c-0.188,0.584-0.407,1.017-0.416,1.036c-0.454,0.783-1.183,1.255-2.729,1.255h-8.194c-4.118,0-8.2-0.896-8.305-0.918
		c-4.301-0.95-5.787-1.295-6.424-1.452V38.992c6.598-2.774,8.632-8.623,8.692-13.444c0.009-0.688,0.562-1.438,1.499-1.438
		c1.584,0,4.385,3.05,4.385,6.825c0,3.409-0.144,3.998-1.388,7.55c14.989,0,14.883,0.207,16.207,0.539
		c1.639,0.45,1.78,1.752,1.78,2.201c0,0.493-0.015,0.421-0.035,0.904c-0.029,0.709-0.339,2.105-2.962,2.105
		c-2.249,0-2.998,0-2.998,0c-0.416,0-0.75,0.322-0.75,0.719C29.23,45.35,29.564,45.671,29.979,45.671z M21.261,89.896H4.8v-24.95
		c0.933,0.219,2.592,0.598,5.777,1.299c0.761,0.166,4.784,0.988,8.952,0.988h1.732v0.746v15.148V89.896z M48.7,89.896H26.006V83.13
		v-15.15v-0.746h1.717c2.497,0,4.297-0.921,5.369-2.771c0.015-0.029,0.36-0.674,0.641-1.547c0.211-0.656,0.29-1.586,0.036-2.529
		c1.61-1.061,2.128-2.666,2.465-3.709c0.565-1.713,0.395-2.998,0.003-3.918c0.905-0.82,1.678-2.069,2.002-3.977
		c0.202-1.182-0.015-2.397-0.583-3.41c0.849-0.914,1.235-2.064,1.279-3.128l0.018-0.3c0.012-0.189,0.02-0.305,0.02-0.719
		c0-1.816-1.312-4.131-4.25-4.937c-1.455-0.366-4.441-0.445-8.716-0.538v-0.258V19.545v-9.441H48.7V89.896z M53.445,89.896V10.104
		h20.549v8.441h-0.006V35.75c-4.271,0.093-7.256,0.171-8.711,0.538c-2.938,0.805-4.25,3.121-4.25,4.937
		c0,0.414,0.009,0.53,0.021,0.719l0.019,0.3c0.043,1.063,0.43,2.214,1.279,3.128c-0.568,1.012-0.785,2.228-0.584,3.41
		c0.325,1.908,1.098,3.157,2.002,3.976c-0.392,0.922-0.562,2.207,0.004,3.92c0.336,1.043,0.854,2.646,2.465,3.709
		c-0.254,0.943-0.176,1.873,0.035,2.529c0.281,0.873,0.627,1.518,0.642,1.547c1.071,1.85,2.872,2.771,5.368,2.771h1.711V83.13h0.006
		v6.767H53.445z M78.738,89.896V67.979h-0.004v-0.746h1.736c4.168,0,8.191-0.822,8.952-0.988c3.185-0.701,4.845-1.08,5.777-1.299
		v24.949L78.738,89.896L78.738,89.896z"/>
</g>
<g>
</g>
<g>
</g>
<g>
</g>
<g>
</g>
<g>
</g>
<g>
</g>
<g>
</g>
<g>
</g>
<g>
</g>
<g>
</g>
<g>
</g>
<g>
</g>
<g>
</g>
<g>
</g>
<g>
</g>
</svg>
