<?xml version="1.0" encoding="UTF-8" standalone="no"?>
<!-- Generator: Adobe Illustrator 16.0.0, SVG Export Plug-In . SVG Version: 6.00 Build 0)  -->

<svg
   xmlns:dc="http://purl.org/dc/elements/1.1/"
   xmlns:cc="http://creativecommons.org/ns#"
   xmlns:rdf="http://www.w3.org/1999/02/22-rdf-syntax-ns#"
   xmlns:svg="http://www.w3.org/2000/svg"
   xmlns="http://www.w3.org/2000/svg"
   xmlns:sodipodi="http://sodipodi.sourceforge.net/DTD/sodipodi-0.dtd"
   xmlns:inkscape="http://www.inkscape.org/namespaces/inkscape"
   version="1.1"
   id="Capa_1"
   x="0px"
   y="0px"
   width="149.21851"
   height="213.88695"
   viewBox="0 0 149.21851 213.88695"
   xml:space="preserve"
   inkscape:version="0.48.4 r9939"
   sodipodi:docname="prisoner.svg"><metadata
     id="metadata3803"><rdf:RDF><cc:Work
         rdf:about=""><dc:format>image/svg+xml</dc:format><dc:type
           rdf:resource="http://purl.org/dc/dcmitype/StillImage" /><dc:title></dc:title></cc:Work></rdf:RDF></metadata><defs
     id="defs3801" /><sodipodi:namedview
     pagecolor="#ffffff"
     bordercolor="#666666"
     borderopacity="1"
     objecttolerance="10"
     gridtolerance="10"
     guidetolerance="10"
     inkscape:pageopacity="0"
     inkscape:pageshadow="2"
     inkscape:window-width="649"
     inkscape:window-height="480"
     id="namedview3799"
     showgrid="false"
     fit-margin-top="10"
     fit-margin-left="10"
     fit-margin-right="10"
     fit-margin-bottom="10"
     inkscape:zoom="0.90499362"
     inkscape:cx="148.94102"
     inkscape:cy="171.27416"
     inkscape:window-x="322"
     inkscape:window-y="143"
     inkscape:window-maximized="0"
     inkscape:current-layer="Capa_1" /><g
     id="g3769"
     transform="translate(-20.053149,-60.320512)" /><g
     id="g3771"
     transform="translate(-20.053149,-60.320512)" /><g
     id="g3773"
     transform="translate(-20.053149,-60.320512)" /><g
     id="g3775"
     transform="translate(-20.053149,-60.320512)" /><g
     id="g3777"
     transform="translate(-20.053149,-60.320512)" /><g
     id="g3779"
     transform="translate(-20.053149,-60.320512)" /><g
     id="g3781"
     transform="translate(-20.053149,-60.320512)" /><g
     id="g3783"
     transform="translate(-20.053149,-60.320512)" /><g
     id="g3785"
     transform="translate(-20.053149,-60.320512)" /><g
     id="g3787"
     transform="translate(-20.053149,-60.320512)" /><g
     id="g3789"
     transform="translate(-20.053149,-60.320512)" /><g
     id="g3791"
     transform="translate(-20.053149,-60.320512)" /><g
     id="g3793"
     transform="translate(-20.053149,-60.320512)" /><g
     id="g3795"
     transform="translate(-20.053149,-60.320512)" /><g
     id="g3797"
     transform="translate(-20.053149,-60.320512)" /><path
     style="fill:#000000"
     d="M 34.03125 96.0625 C 30.344296 98.171269 26.954439 100.73975 23.96875 103.71875 L 34.8125 103.71875 C 34.213741 101.5525 33.90625 99.641808 33.90625 98.09375 C 33.90625 97.401315 33.980382 96.74407 34.03125 96.0625 z M 115.1875 96.0625 C 115.2298 96.744061 115.3125 97.400876 115.3125 98.09375 C 115.3125 99.650583 115.03748 101.55745 114.5 103.71875 L 125.25 103.71875 C 122.26429 100.7393 118.87456 98.172048 115.1875 96.0625 z M 132.03125 112.25 L 132.03125 113.875 L 110.875 113.875 C 109.96203 115.9034 108.90073 117.97932 107.75 120.0625 L 135.96875 120.0625 C 134.89564 117.32375 133.57113 114.71426 132.03125 112.25 z M 16.21875 113.875 C 15.092402 115.84863 14.120125 117.92494 13.28125 120.0625 L 42.21875 120.0625 C 40.970911 117.98061 39.810583 115.9008 38.8125 113.875 L 16.21875 113.875 z M 10.53125 130.21875 C 10.264977 131.97849 10.097159 133.77509 10.03125 135.59375 L 54.1875 135.59375 C 52.493712 133.90806 50.856455 132.11079 49.3125 130.21875 L 10.53125 130.21875 z M 101.1875 130.21875 C 99.747216 132.10894 98.218971 133.91044 96.625 135.59375 L 139.1875 135.59375 C 139.1219 133.77547 138.95477 131.98255 138.6875 130.21875 L 101.1875 130.21875 z M 10.875 145.75 C 11.157153 147.60371 11.518356 149.39082 11.90625 151.15625 L 137.65625 151.15625 C 138.00333 149.3937 138.28969 147.6013 138.53125 145.75 L 81.71875 145.75 C 79.896007 146.31493 78.02962 146.65209 76.15625 146.6875 C 74.015793 146.72796 71.887408 146.38329 69.78125 145.75 L 10.875 145.75 z M 14.84375 161.3125 C 15.528822 163.17035 16.2861 164.95083 17.09375 166.6875 L 132.84375 166.6875 C 133.60282 164.95863 134.30087 163.16231 134.9375 161.3125 L 14.84375 161.3125 z M 22.9375 176.84375 C 24.273484 178.75075 25.693785 180.5443 27.1875 182.25 L 123.15625 182.25 C 124.59864 180.54762 125.96779 178.74776 127.25 176.84375 L 22.9375 176.84375 z M 38.53125 192.40625 C 60.473462 207.67369 90.521133 207.71788 112.09375 192.40625 L 38.53125 192.40625 z "
     transform="translate(0,-1.7834642e-6)"
     id="path3628" /><path
     inkscape:connector-curvature="0"
     style="fill:#000000;display:inline"
     d="m 74.60937,15.44692 c -21.56718,0 -39.0625,17.49532 -39.0625,39.0625 0,21.56719 17.49532,39.03125 39.0625,39.03125 21.56719,0 39.06251,-17.46406 39.06251,-39.03125 0,-21.56718 -17.49532,-39.0625 -39.06251,-39.0625 z m 0,8.28125 c 16.9889,0 30.75001,13.79236 30.75001,30.78125 0,16.98889 -13.76111,30.75 -30.75001,30.75 -16.98889,0 -30.75,-13.76111 -30.75,-30.75 0,-16.98889 13.76111,-30.78125 30.75,-30.78125 z"
     id="path3848" /></svg>