<?xml version="1.0" encoding="UTF-8" standalone="no"?>
<!-- Generator: Adobe Illustrator 16.0.0, SVG Export Plug-In . SVG Version: 6.00 Build 0)  -->

<svg
   xmlns:dc="http://purl.org/dc/elements/1.1/"
   xmlns:cc="http://creativecommons.org/ns#"
   xmlns:rdf="http://www.w3.org/1999/02/22-rdf-syntax-ns#"
   xmlns:svg="http://www.w3.org/2000/svg"
   xmlns="http://www.w3.org/2000/svg"
   xmlns:sodipodi="http://sodipodi.sourceforge.net/DTD/sodipodi-0.dtd"
   xmlns:inkscape="http://www.inkscape.org/namespaces/inkscape"
   version="1.1"
   id="Capa_1"
   x="0px"
   y="0px"
   width="155.27013"
   height="220"
   viewBox="0 0 155.27013 220"
   xml:space="preserve"
   inkscape:version="0.48.4 r9939"
   sodipodi:docname="prisoner.svg"><metadata
     id="metadata3803"><rdf:RDF><cc:Work
         rdf:about=""><dc:format>image/svg+xml</dc:format><dc:type
           rdf:resource="http://purl.org/dc/dcmitype/StillImage" /><dc:title /></cc:Work></rdf:RDF></metadata><defs
     id="defs3801" /><sodipodi:namedview
     pagecolor="#ffffff"
     bordercolor="#666666"
     borderopacity="1"
     objecttolerance="10"
     gridtolerance="10"
     guidetolerance="10"
     inkscape:pageopacity="0"
     inkscape:pageshadow="2"
     inkscape:window-width="1280"
     inkscape:window-height="1004"
     id="namedview3799"
     showgrid="false"
     fit-margin-top="10"
     fit-margin-left="10"
     fit-margin-right="10"
     fit-margin-bottom="10"
     inkscape:zoom="0.90499362"
     inkscape:cx="148.90977"
     inkscape:cy="-31.507308"
     inkscape:window-x="-3"
     inkscape:window-y="-3"
     inkscape:window-maximized="1"
     inkscape:current-layer="Capa_1" /><g
     id="g3769"
     transform="translate(-20.084399,-54.193912)" /><g
     id="g3771"
     transform="translate(-20.084399,-54.193912)" /><g
     id="g3773"
     transform="translate(-20.084399,-54.193912)" /><g
     id="g3775"
     transform="translate(-20.084399,-54.193912)" /><g
     id="g3777"
     transform="translate(-20.084399,-54.193912)" /><g
     id="g3779"
     transform="translate(-20.084399,-54.193912)" /><g
     id="g3781"
     transform="translate(-20.084399,-54.193912)" /><g
     id="g3783"
     transform="translate(-20.084399,-54.193912)" /><g
     id="g3785"
     transform="translate(-20.084399,-54.193912)" /><g
     id="g3787"
     transform="translate(-20.084399,-54.193912)" /><g
     id="g3789"
     transform="translate(-20.084399,-54.193912)" /><g
     id="g3791"
     transform="translate(-20.084399,-54.193912)" /><g
     id="g3793"
     transform="translate(-20.084399,-54.193912)" /><g
     id="g3795"
     transform="translate(-20.084399,-54.193912)" /><g
     id="g3797"
     transform="translate(-20.084399,-54.193912)" /><path
     style="fill:#000000"
     d="m 35.136089,97.08565 c -3.861483,2.208592 -7.411807,4.89866 -10.538829,8.01867 l 11.35706,0 c -0.627102,-2.26879 -0.949148,-4.26993 -0.949148,-5.891266 0,-0.725213 0.07765,-1.41357 0.130917,-2.127404 z m 84.997941,0 c 0.0443,0.713824 0.13092,1.401731 0.13092,2.127404 0,1.630526 -0.28803,3.627666 -0.85096,5.891266 l 11.25887,0 c -3.12704,-3.12048 -6.67723,-5.809262 -10.53883,-8.01867 z m 17.64109,16.95377 0,1.70192 -22.15772,0 c -0.9562,2.12442 -2.06773,4.29861 -3.27293,6.4804 l 29.55454,0 c -1.12391,-2.8684 -2.51112,-5.60141 -4.12389,-8.18232 z m -121.294722,1.70192 c -1.179666,2.06706 -2.197967,4.24166 -3.076553,6.4804 l 30.307316,0 c -1.306908,-2.18044 -2.522163,-4.3587 -3.567492,-6.4804 l -23.663271,0 z m -5.956729,17.11742 c -0.278878,1.84303 -0.45464,3.72468 -0.523669,5.62943 l 46.246475,0 c -1.773966,-1.76548 -3.488726,-3.64783 -5.105767,-5.62943 l -40.617039,0 z m 94.947641,0 c -1.50846,1.97967 -3.10905,3.86644 -4.77847,5.62943 l 44.57729,0 c -0.0687,-1.90435 -0.24376,-3.78214 -0.52367,-5.62943 l -39.27515,0 z m -94.587619,16.26645 c 0.295509,1.94145 0.67381,3.81316 1.080066,5.66217 l 131.702623,0 c 0.36352,-1.84599 0.66343,-3.72323 0.91643,-5.66217 l -59.501837,0 c -1.909026,0.59167 -3.863762,0.94479 -5.825812,0.98188 -2.241779,0.0423 -4.470916,-0.31862 -6.676773,-0.98188 l -61.694697,0 z m 4.156618,16.29918 c 0.717502,1.9458 1.510627,3.81056 2.356508,5.62944 l 121.229263,0 c 0.79501,-1.81071 1.52609,-3.69207 2.19286,-5.62944 l -125.778631,0 z m 8.476885,16.26645 c 1.399225,1.99728 2.886759,3.87573 4.451182,5.66217 l 100.511624,0 c 1.51067,-1.78297 2.94463,-3.66803 4.28753,-5.66217 l -109.250336,0 z m 16.331911,16.29918 c 22.980891,15.99016 54.45093,16.03644 77.044735,0 l -77.044735,0 z"
     id="path3628"
     inkscape:connector-curvature="0" /><path
     inkscape:connector-curvature="0"
     style="fill:#000000;display:inline"
     d="m 76.544738,9.9999985 c -24.525507,0 -44.420626,19.8951175 -44.420626,44.4206265 0,24.525519 19.895119,44.38509 44.420626,44.38509 24.525522,0 44.420642,-19.859571 44.420642,-44.38509 0,-24.525509 -19.89512,-44.4206265 -44.420642,-44.4206265 z m 0,9.4171725 c 19.319232,0 34.967942,15.684232 34.967942,35.003454 0,19.319223 -15.64871,34.967918 -34.967942,34.967918 -19.319222,0 -34.967917,-15.648695 -34.967917,-34.967918 0,-19.319222 15.648695,-35.003454 34.967917,-35.003454 z"
     id="path3848" /></svg>